<svg width="96" height="27" xmlns="http://www.w3.org/2000/svg" xmlns:xlink="http://www.w3.org/1999/xlink" xml:space="preserve" overflow="hidden"><g transform="translate(-652 -22)"><text fill="#1D1D1B" font-family="Arial,Arial_MSFontService,sans-serif" font-weight="700" font-size="40" transform="matrix(0.0778204 0 0 0.0766044 658.688 32)">MINISTÉRIO DO</text><text fill="#1D1D1B" font-family="Arial,Arial_MSFontService,sans-serif" font-weight="700" font-size="40" transform="matrix(0.0778204 0 0 0.0766044 657.616 37)">PLANE</text><text fill="#1D1D1B" font-family="Arial,Arial_MSFontService,sans-serif" font-weight="700" font-size="40" transform="matrix(0.0778204 0 0 0.0766044 670.768 37)">J</text><text fill="#1D1D1B" font-family="Arial,Arial_MSFontService,sans-serif" font-weight="700" font-size="40" transform="matrix(0.0778204 0 0 0.0766044 672.883 37)">AMEN</text><text fill="#1D1D1B" font-family="Arial,Arial_MSFontService,sans-serif" font-weight="700" font-size="40" transform="matrix(0.0778204 0 0 0.0766044 684.311 37)">T</text><text fill="#1D1D1B" font-family="Arial,Arial_MSFontService,sans-serif" font-weight="700" font-size="40" transform="matrix(0.0778204 0 0 0.0766044 686.839 37)">O</text><text fill="#1D1D1B" font-family="Arial,Arial_MSFontService,sans-serif" font-weight="700" font-size="40" transform="matrix(0.0778204 0 0 0.0766044 660.645 41)">E O</text><text fill="#1D1D1B" font-family="Arial,Arial_MSFontService,sans-serif" font-weight="700" font-size="40" transform="matrix(0.0778204 0 0 0.0766044 667.449 41)">R</text><text fill="#1D1D1B" font-family="Arial,Arial_MSFontService,sans-serif" font-weight="700" font-size="40" transform="matrix(0.0778204 0 0 0.0766044 670.145 41)">Ç</text><text fill="#1D1D1B" font-family="Arial,Arial_MSFontService,sans-serif" font-weight="700" font-size="40" transform="matrix(0.0778204 0 0 0.0766044 672.883 41)">AMEN</text><text fill="#1D1D1B" font-family="Arial,Arial_MSFontService,sans-serif" font-weight="700" font-size="40" transform="matrix(0.0778204 0 0 0.0766044 684.311 41)">T</text><text fill="#1D1D1B" font-family="Arial,Arial_MSFontService,sans-serif" font-weight="700" font-size="40" transform="matrix(0.0778204 0 0 0.0766044 686.839 41)">O</text><path d="M48.5703 23.3674C48.4692 23.3674 48.3772 23.3521 48.2968 23.3222 48.2156 23.2923 48.149 23.2517 48.0953 23.2012 48.0417 23.1506 47.9973 23.0901 47.962 23.0189 47.9268 22.9476 47.9015 22.8733 47.8862 22.7952 47.8709 22.717 47.8632 22.6343 47.8632 22.5462L47.8632 21.7151 48.1229 21.7151 48.1229 22.5462C48.1229 22.6083 48.1275 22.6673 48.1367 22.7224 48.1459 22.7776 48.1612 22.8312 48.1834 22.8817 48.2056 22.9331 48.2332 22.9767 48.2662 23.0127 48.2991 23.0487 48.342 23.0779 48.3933 23.0993 48.4454 23.1215 48.5044 23.1322 48.5703 23.1322 48.6362 23.1322 48.6967 23.1215 48.7488 23.0993 48.8009 23.0771 48.8438 23.048 48.8767 23.0104 48.9096 22.9737 48.9372 22.9292 48.9594 22.8787 48.9809 22.8274 48.9962 22.7745 49.0054 22.7201 49.0138 22.6657 49.0184 22.6075 49.0184 22.5455L49.0184 21.7143 49.2804 21.7143 49.2804 22.5455C49.2804 22.6604 49.2666 22.7661 49.2398 22.8626 49.213 22.9591 49.1716 23.0457 49.1165 23.1223 49.0613 23.1989 48.987 23.2586 48.8943 23.3008 48.8016 23.3437 48.6936 23.3651 48.571 23.3651" fill="#212120" transform="matrix(1.01587 0 0 1 652.053 22)"/><path d="M50.3444 22.1969 50.3444 23.3567 50.0863 23.3567 50.0863 21.7166 50.2985 21.7166 51.2277 22.9017 51.2277 21.7181 51.4881 21.7181 51.4881 23.3567 51.2614 23.3567 50.3444 22.1969Z" fill="#212120" transform="matrix(1.01587 0 0 1 652.053 22)"/><path d="M52.3193 21.7166 52.5775 21.7166 52.5775 23.3567 52.3193 23.3567Z" fill="#212120" transform="matrix(1.01587 0 0 1 652.053 22)"/><path d="M53.8836 21.7166 54.1287 21.7166 54.766 23.3567 54.4933 23.3567 54.321 22.9109 53.6882 22.9109 53.5166 23.3567 53.2416 23.3567 53.8843 21.7166ZM53.8529 21.4094C53.8292 21.4094 53.8085 21.4148 53.7916 21.4247 53.7748 21.4347 53.7633 21.4477 53.7564 21.4623 53.7495 21.4768 53.7449 21.4891 53.7426 21.4983 53.7403 21.5075 53.7395 21.5151 53.7395 21.5205L53.5963 21.5205C53.5963 21.509 53.5986 21.4937 53.6032 21.4745 53.6078 21.4546 53.6162 21.4324 53.6285 21.4063 53.6407 21.3803 53.656 21.3566 53.6737 21.3343 53.6913 21.3121 53.715 21.293 53.7449 21.2777 53.7748 21.2623 53.8077 21.2547 53.8437 21.2547 53.882 21.2547 53.9188 21.2631 53.9533 21.2799 53.9877 21.2968 54.0207 21.3137 54.0521 21.3305 54.0835 21.3474 54.1149 21.3558 54.1455 21.3558 54.1662 21.3558 54.1854 21.352 54.2015 21.3443 54.2176 21.3366 54.2298 21.3282 54.2382 21.3183 54.2467 21.3083 54.2536 21.2976 54.2589 21.2861 54.2643 21.2746 54.2673 21.2654 54.2681 21.2585 54.2696 21.2516 54.2696 21.2462 54.2696 21.2424L54.4152 21.2424C54.4152 21.2524 54.4129 21.2669 54.4075 21.2853 54.4029 21.3045 54.3937 21.3267 54.3807 21.3527 54.3677 21.3788 54.3516 21.4033 54.3332 21.4263 54.3141 21.4485 54.2888 21.4684 54.2574 21.4845 54.2252 21.5006 54.19 21.509 54.1517 21.509 54.1134 21.509 54.0735 21.5006 54.0375 21.4845 54.0015 21.4676 53.9678 21.4515 53.938 21.4347 53.9073 21.4178 53.879 21.4102 53.8514 21.4102M54.2689 22.7193 54.0046 22.0008 53.7327 22.7193 54.2681 22.7193Z" fill="#212120" transform="matrix(1.01587 0 0 1 652.053 22)"/><path d="M55.2647 22.5363C55.2647 22.4282 55.2847 22.3233 55.3253 22.2222 55.3659 22.1211 55.4202 22.0322 55.4892 21.9564 55.5581 21.8805 55.6424 21.8192 55.7405 21.7733 55.8393 21.7273 55.9435 21.7043 56.0538 21.7043 56.1641 21.7043 56.2736 21.7281 56.3732 21.7763 56.4728 21.8246 56.5555 21.8882 56.6222 21.9663 56.6888 22.0452 56.7409 22.1341 56.7792 22.2337 56.8175 22.3333 56.8367 22.4344 56.8367 22.5378 56.8367 22.6458 56.8167 22.7508 56.7761 22.8511 56.7355 22.9522 56.6819 23.0403 56.613 23.1162 56.5448 23.192 56.4613 23.2525 56.3625 23.2985 56.2637 23.3437 56.1595 23.3667 56.0492 23.3667 55.9572 23.3667 55.8699 23.3513 55.7872 23.3207 55.7044 23.29 55.6317 23.2487 55.5689 23.1951 55.506 23.1414 55.4517 23.0802 55.4057 23.0097 55.3597 22.94 55.3245 22.8641 55.3 22.7822 55.2762 22.701 55.264 22.6182 55.264 22.5347M56.0522 23.1345C56.1319 23.1345 56.2054 23.1169 56.2721 23.0825 56.3387 23.048 56.3939 23.002 56.4368 22.9453 56.4797 22.8886 56.5126 22.8251 56.5364 22.7538 56.5601 22.6833 56.5716 22.6106 56.5716 22.5363 56.5716 22.462 56.5594 22.3838 56.5341 22.3126 56.5088 22.2406 56.4743 22.177 56.4307 22.1218 56.387 22.0667 56.3318 22.0222 56.266 21.9901 56.2001 21.9571 56.1288 21.941 56.0522 21.941 55.9756 21.941 55.899 21.9579 55.8316 21.9924 55.7642 22.0268 55.709 22.072 55.6654 22.128 55.6217 22.1846 55.588 22.2482 55.5643 22.3187 55.5405 22.3892 55.5283 22.462 55.5283 22.5363 55.5283 22.6397 55.5489 22.737 55.5911 22.8274 55.6324 22.9178 55.6945 22.9913 55.7757 23.0487 55.8569 23.1062 55.9496 23.1345 56.053 23.1345" fill="#212120" transform="matrix(1.01587 0 0 1 652.053 22)"/><path d="M59.7216 23.1276 59.7216 23.3567 58.597 23.3567 58.597 21.7166 59.7009 21.7166 59.7009 21.9449 58.8552 21.9449 58.8552 22.4114 59.5875 22.4114 59.5875 22.6267 58.8552 22.6267 58.8552 23.1276 59.7216 23.1276Z" fill="#212120" transform="matrix(1.01587 0 0 1 652.053 22)"/><path d="M61.4804 23.3567 61.4804 21.7166 62.1944 21.7166C62.2656 21.7166 62.3338 21.7319 62.3981 21.7626 62.4625 21.7932 62.5169 21.8338 62.5598 21.8844 62.6034 21.9349 62.6379 21.9924 62.6632 22.056 62.6885 22.1195 62.7015 22.1846 62.7015 22.2498 62.7015 22.3608 62.6724 22.462 62.6134 22.5516 62.5544 22.6412 62.4771 22.7017 62.3813 22.7324L62.7674 23.3559 62.4763 23.3559 62.1201 22.7852 61.7386 22.7852 61.7386 23.3559 61.4804 23.3559ZM61.7386 22.5569 62.1921 22.5569C62.2633 22.5569 62.3223 22.5271 62.369 22.4673 62.4158 22.4076 62.4387 22.3356 62.4387 22.2505 62.4387 22.1655 62.4127 22.0958 62.3598 22.036 62.307 21.9763 62.2465 21.9464 62.1768 21.9464L61.7378 21.9464 61.7378 22.5577Z" fill="#212120" transform="matrix(1.01587 0 0 1 652.053 22)"/><path d="M64.5936 23.1276 64.5936 23.3567 63.4691 23.3567 63.4691 21.7166 64.5729 21.7166 64.5729 21.9449 63.7272 21.9449 63.7272 22.4114 64.4588 22.4114 64.4588 22.6267 63.7272 22.6267 63.7272 23.1276 64.5936 23.1276Z" fill="#212120" transform="matrix(1.01587 0 0 1 652.053 22)"/><path d="M65.9809 21.7074C66.1242 21.7074 66.2506 21.7396 66.3594 21.8047 66.4681 21.8698 66.5501 21.9564 66.6045 22.0644L66.4015 22.2007C66.3793 22.1532 66.3525 22.1119 66.3188 22.0774 66.2858 22.0422 66.2498 22.0154 66.2108 21.9962 66.1717 21.977 66.1326 21.9633 66.0928 21.9541 66.0537 21.9449 66.0131 21.9403 65.9717 21.9403 65.9059 21.9403 65.8438 21.9518 65.7864 21.9747 65.7289 21.9977 65.6806 22.0284 65.64 22.0667 65.5994 22.105 65.5642 22.1502 65.5351 22.2007 65.506 22.2521 65.4845 22.3057 65.47 22.3624 65.4562 22.4191 65.4493 22.4757 65.4493 22.534 65.4493 22.6397 65.4715 22.7393 65.5167 22.8304 65.5611 22.9223 65.6247 22.9959 65.7067 23.0518 65.7887 23.1077 65.8791 23.1361 65.9786 23.1361 66.0353 23.1361 66.0905 23.1269 66.1441 23.1093 66.1977 23.0916 66.2498 23.0618 66.2996 23.0204 66.3494 22.979 66.3877 22.9277 66.4153 22.8664L66.6305 22.9882C66.5984 23.0664 66.5455 23.1353 66.4727 23.1943 66.4 23.254 66.3195 23.2977 66.2322 23.3261 66.1449 23.3544 66.0575 23.3689 65.9694 23.3689 65.8584 23.3689 65.7527 23.3444 65.6538 23.2954 65.555 23.2464 65.4715 23.182 65.4041 23.1024 65.3367 23.0227 65.2838 22.9323 65.2448 22.8312 65.2057 22.7301 65.1858 22.6274 65.1858 22.524 65.1858 22.4443 65.1973 22.3654 65.2195 22.2865 65.2417 22.2076 65.2762 22.1341 65.3214 22.0644 65.3666 21.9947 65.421 21.9334 65.483 21.8798 65.5458 21.8261 65.6194 21.784 65.7052 21.7526 65.791 21.7212 65.8821 21.7059 65.9794 21.7059" fill="#212120" transform="matrix(1.01587 0 0 1 652.053 22)"/><path d="M67.2074 22.5363C67.2074 22.4282 67.2273 22.3233 67.2679 22.2222 67.3085 22.1211 67.3629 22.0322 67.4318 21.9564 67.5008 21.8805 67.585 21.8192 67.6831 21.7733 67.7819 21.7273 67.8861 21.7043 67.9964 21.7043 68.1067 21.7043 68.2163 21.7281 68.3158 21.7763 68.4154 21.8246 68.4982 21.8882 68.5648 21.9663 68.6314 22.0452 68.6835 22.1341 68.7218 22.2337 68.7601 22.3333 68.7793 22.4344 68.7793 22.5378 68.7793 22.6458 68.7594 22.7508 68.7188 22.8511 68.6782 22.9522 68.6246 23.0403 68.5556 23.1162 68.4874 23.192 68.4039 23.2525 68.3051 23.2985 68.2063 23.3437 68.1021 23.3667 67.9918 23.3667 67.8999 23.3667 67.8125 23.3513 67.7298 23.3207 67.6471 23.29 67.5743 23.2487 67.5115 23.1951 67.4487 23.1414 67.3943 23.0802 67.3483 23.0097 67.3024 22.94 67.2671 22.8641 67.2426 22.7822 67.2189 22.701 67.2066 22.6182 67.2066 22.5347M67.9949 23.1345C68.0745 23.1345 68.1481 23.1169 68.2147 23.0825 68.2814 23.048 68.3365 23.002 68.3794 22.9453 68.4223 22.8886 68.4553 22.8251 68.479 22.7538 68.5028 22.6833 68.5142 22.6106 68.5142 22.5363 68.5142 22.462 68.502 22.3838 68.4767 22.3126 68.4514 22.2406 68.417 22.177 68.3733 22.1218 68.3296 22.0667 68.2745 22.0222 68.2086 21.9901 68.1427 21.9571 68.0715 21.941 67.9949 21.941 67.9183 21.941 67.8417 21.9579 67.7742 21.9924 67.7068 22.0268 67.6517 22.072 67.608 22.128 67.5643 22.1846 67.5306 22.2482 67.5069 22.3187 67.4831 22.3892 67.4709 22.462 67.4709 22.5363 67.4709 22.6397 67.4916 22.737 67.5337 22.8274 67.5751 22.9178 67.6371 22.9913 67.7183 23.0487 67.7995 23.1062 67.8922 23.1345 67.9956 23.1345" fill="#212120" transform="matrix(1.01587 0 0 1 652.053 22)"/><path d="M69.7683 22.1969 69.7683 23.3567 69.5101 23.3567 69.5101 21.7166 69.7223 21.7166 70.6515 22.9017 70.6515 21.7181 70.9127 21.7181 70.9127 23.3567 70.686 23.3567 69.7683 22.1969Z" fill="#212120" transform="matrix(1.01587 0 0 1 652.053 22)"/><path d="M72.7137 22.1019C72.6785 22.0628 72.618 22.0253 72.5329 21.9893 72.4479 21.9533 72.3605 21.9349 72.2702 21.9349 72.1637 21.9349 72.0832 21.9548 72.0304 21.9939 71.9775 22.033 71.9507 22.0889 71.9507 22.1617 71.9507 22.1846 71.9538 22.2046 71.9599 22.2229 71.966 22.2406 71.9737 22.2567 71.9829 22.2704 71.9921 22.2842 72.0066 22.298 72.025 22.3103 72.0442 22.3233 72.0626 22.334 72.0809 22.3432 72.0993 22.3524 72.1246 22.3616 72.1568 22.3723 72.189 22.3823 72.2188 22.3915 72.2464 22.3984 72.274 22.4053 72.3108 22.4145 72.356 22.4259 72.428 22.4436 72.49 22.4604 72.5413 22.4773 72.5927 22.4941 72.6417 22.5156 72.6892 22.5416 72.7367 22.5677 72.7742 22.5968 72.8033 22.6282 72.8317 22.6604 72.8547 22.6994 72.8715 22.7446 72.8884 22.7906 72.8968 22.8427 72.8968 22.9017 72.8968 22.9668 72.8861 23.0258 72.8661 23.0786 72.8455 23.1315 72.8171 23.1759 72.7811 23.2119 72.7451 23.2479 72.7014 23.2786 72.6501 23.3031 72.5988 23.3276 72.5444 23.3452 72.4854 23.3559 72.4264 23.3667 72.3636 23.372 72.2962 23.372 72.1713 23.372 72.0503 23.3529 71.9339 23.3153 71.8174 23.277 71.7125 23.2226 71.619 23.1514L71.7378 22.9292C71.7853 22.9783 71.8626 23.025 71.9699 23.071 72.0771 23.1162 72.1874 23.1391 72.3008 23.1391 72.4035 23.1391 72.4816 23.1208 72.5367 23.0847 72.5919 23.0487 72.6195 22.9967 72.6195 22.9292 72.6195 22.9024 72.6156 22.8779 72.6072 22.8557 72.5988 22.8343 72.5842 22.8143 72.5643 22.7967 72.5436 22.7791 72.523 22.7638 72.5015 22.7508 72.4801 22.7377 72.4494 22.7247 72.4103 22.7109 72.3713 22.6971 72.3345 22.6864 72.3023 22.6772 72.2694 22.668 72.2257 22.6565 72.1698 22.642 72.0832 22.619 72.012 22.5968 71.9553 22.573 71.8986 22.55 71.8488 22.5209 71.8059 22.4872 71.763 22.4535 71.7316 22.4137 71.7117 22.367 71.6918 22.321 71.6826 22.2658 71.6826 22.203 71.6826 22.1241 71.6979 22.0529 71.7286 21.9893 71.7592 21.9257 71.8006 21.8736 71.8542 21.8323 71.9078 21.7909 71.9706 21.7595 72.0426 21.7373 72.1147 21.7158 72.1936 21.7043 72.2786 21.7043 72.4801 21.7043 72.6647 21.7656 72.8324 21.8897L72.7152 22.1019Z" fill="#212120" transform="matrix(1.01587 0 0 1 652.053 22)"/><path d="M74.8203 21.9456 74.2757 21.9456 74.2757 23.3567 74.0137 23.3567 74.0137 21.9456 73.4667 21.9456 73.4667 21.7166 74.8203 21.7166 74.8203 21.9456Z" fill="#212120" transform="matrix(1.01587 0 0 1 652.053 22)"/><path d="M75.5013 23.3567 75.5013 21.7166 76.2153 21.7166C76.2865 21.7166 76.3547 21.7319 76.4191 21.7626 76.4834 21.7932 76.537 21.8338 76.5807 21.8844 76.6244 21.9349 76.6588 21.9924 76.6849 22.056 76.7102 22.1195 76.7232 22.1846 76.7232 22.2498 76.7232 22.3608 76.6941 22.462 76.6351 22.5516 76.5761 22.6412 76.4987 22.7017 76.403 22.7324L76.7891 23.3559 76.498 23.3559 76.1418 22.7852 75.7603 22.7852 75.7603 23.3559 75.5021 23.3559ZM75.7595 22.5569 76.213 22.5569C76.2842 22.5569 76.3432 22.5271 76.3899 22.4673 76.4367 22.4076 76.4597 22.3356 76.4597 22.2505 76.4597 22.1655 76.4336 22.0958 76.3808 22.036 76.3279 21.9763 76.2674 21.9464 76.1977 21.9464L75.7587 21.9464 75.7587 22.5577Z" fill="#212120" transform="matrix(1.01587 0 0 1 652.053 22)"/><path d="M78.171 23.3674C78.0699 23.3674 77.978 23.3521 77.8975 23.3222 77.8163 23.2923 77.7497 23.2517 77.6961 23.2012 77.6424 23.1506 77.598 23.0901 77.5628 23.0189 77.5275 22.9476 77.5022 22.8733 77.4869 22.7952 77.4716 22.717 77.4639 22.6343 77.4639 22.5462L77.4639 21.7151 77.7236 21.7151 77.7236 22.5462C77.7236 22.6083 77.7282 22.6673 77.7374 22.7224 77.7466 22.7776 77.7619 22.8312 77.7841 22.8817 77.8064 22.9331 77.8339 22.9767 77.8669 23.0127 77.8998 23.0487 77.9427 23.0779 77.994 23.0993 78.0461 23.1215 78.1051 23.1322 78.171 23.1322 78.2369 23.1322 78.2974 23.1215 78.3495 23.0993 78.4016 23.0771 78.4445 23.048 78.4774 23.0104 78.5104 22.9737 78.5379 22.9292 78.5602 22.8787 78.5816 22.8274 78.5969 22.7745 78.6061 22.7201 78.6145 22.6657 78.6191 22.6075 78.6191 22.5455L78.6191 21.7143 78.8811 21.7143 78.8811 22.5455C78.8811 22.6604 78.8673 22.7661 78.8405 22.8626 78.8137 22.9591 78.7723 23.0457 78.7172 23.1223 78.662 23.1989 78.5877 23.2586 78.495 23.3008 78.4023 23.3437 78.2943 23.3651 78.1718 23.3651" fill="#212120" transform="matrix(1.01587 0 0 1 652.053 22)"/><path d="M81.0268 22.989C80.9847 23.0901 80.9119 23.1728 80.8093 23.2387 80.7058 23.3046 80.594 23.346 80.4722 23.3636 80.5511 23.4295 80.5909 23.5038 80.5909 23.5857 80.5909 23.6516 80.5687 23.7045 80.5243 23.7435 80.4799 23.7826 80.4178 23.8025 80.3381 23.8025 80.2431 23.8025 80.1528 23.7803 80.0662 23.7359L80.1305 23.5995C80.1895 23.6317 80.2439 23.6478 80.2937 23.6478 80.3374 23.6478 80.3711 23.6386 80.3956 23.6202 80.4201 23.6018 80.4324 23.575 80.4324 23.5398 80.4324 23.4793 80.391 23.4226 80.3083 23.3682 80.2033 23.3598 80.106 23.3299 80.0141 23.2778 79.9229 23.2257 79.8456 23.1606 79.7835 23.0825 79.7207 23.0043 79.6717 22.917 79.6364 22.8197 79.6004 22.7224 79.5828 22.6244 79.5828 22.5255 79.5828 22.4459 79.5943 22.367 79.6165 22.2881 79.6395 22.2092 79.6732 22.1356 79.7184 22.0659 79.7644 21.9962 79.818 21.9349 79.8801 21.8813 79.9429 21.8277 80.0164 21.7855 80.1022 21.7541 80.188 21.7227 80.2792 21.7074 80.3764 21.7074 80.5205 21.7074 80.6461 21.7396 80.7549 21.8047 80.8636 21.8698 80.9456 21.9564 81 22.0644L80.797 22.2007C80.7756 22.1532 80.748 22.1119 80.7143 22.0774 80.6813 22.0422 80.6453 22.0154 80.6063 21.9962 80.5672 21.977 80.5281 21.9633 80.4883 21.9541 80.4485 21.9449 80.4086 21.9403 80.3672 21.9403 80.3014 21.9403 80.2393 21.9518 80.1819 21.9747 80.1244 21.9977 80.0761 22.0284 80.0356 22.0667 79.995 22.105 79.9597 22.1502 79.9306 22.2007 79.9015 22.2521 79.8793 22.3057 79.8655 22.3624 79.8517 22.4191 79.8448 22.4757 79.8448 22.534 79.8448 22.6397 79.867 22.7393 79.9122 22.8304 79.9566 22.9223 80.0202 22.9959 80.1022 23.0518 80.1842 23.1077 80.2746 23.1361 80.3741 23.1361 80.4308 23.1361 80.486 23.1276 80.5396 23.1093 80.5932 23.0916 80.6453 23.0618 80.6951 23.0204 80.7449 22.979 80.784 22.9277 80.8108 22.8664L81.026 22.9882Z" fill="#212120" transform="matrix(1.01587 0 0 1 652.053 22)"/><path d="M82.1782 21.7166 82.4233 21.7166 83.0607 23.3567 82.7879 23.3567 82.6156 22.9109 81.9828 22.9109 81.8112 23.3567 81.5362 23.3567 82.1789 21.7166ZM82.1483 21.4094C82.1246 21.4094 82.1039 21.4148 82.087 21.4247 82.0702 21.4347 82.0587 21.4477 82.0518 21.4623 82.0449 21.4768 82.0403 21.4891 82.038 21.4983 82.0357 21.5075 82.0349 21.5151 82.0349 21.5205L81.8917 21.5205C81.8917 21.509 81.894 21.4937 81.8986 21.4745 81.9032 21.4546 81.9116 21.4324 81.9239 21.4063 81.9361 21.3803 81.9514 21.3566 81.9691 21.3343 81.9867 21.3121 82.0104 21.293 82.0403 21.2777 82.0702 21.2623 82.1031 21.2547 82.1391 21.2547 82.1774 21.2547 82.2142 21.2631 82.2487 21.2799 82.2831 21.2968 82.3161 21.3137 82.3475 21.3305 82.3789 21.3474 82.4103 21.3558 82.4409 21.3558 82.4616 21.3558 82.4808 21.352 82.4969 21.3443 82.5129 21.3366 82.5252 21.3282 82.5336 21.3183 82.5421 21.3083 82.5489 21.2976 82.5543 21.2861 82.5597 21.2746 82.5627 21.2654 82.5635 21.2585 82.565 21.2516 82.565 21.2462 82.565 21.2424L82.7106 21.2424C82.7106 21.2524 82.7083 21.2669 82.7029 21.2853 82.6983 21.3045 82.6891 21.3267 82.6761 21.3527 82.6631 21.3788 82.647 21.4033 82.6286 21.4263 82.6095 21.4485 82.5842 21.4684 82.5528 21.4845 82.5206 21.5006 82.4854 21.509 82.4471 21.509 82.4088 21.509 82.3689 21.5006 82.3329 21.4845 82.2969 21.4676 82.2632 21.4515 82.2333 21.4347 82.2027 21.4178 82.1743 21.4102 82.1468 21.4102M82.5643 22.7193 82.3 22.0008 82.028 22.7193 82.5635 22.7193Z" fill="#212120" transform="matrix(1.01587 0 0 1 652.053 22)"/><path d="M83.5594 22.5363C83.5594 22.4282 83.5793 22.3233 83.6199 22.2222 83.6605 22.1211 83.7149 22.0322 83.7838 21.9564 83.8528 21.8805 83.937 21.8192 84.0351 21.7733 84.1339 21.7273 84.2381 21.7043 84.3484 21.7043 84.4587 21.7043 84.5682 21.7281 84.6678 21.7763 84.7674 21.8246 84.8501 21.8882 84.9168 21.9663 84.9834 22.0452 85.0355 22.1341 85.0738 22.2337 85.1121 22.3333 85.1313 22.4344 85.1313 22.5378 85.1313 22.6458 85.1114 22.7508 85.0708 22.8511 85.0302 22.9522 84.9765 23.0403 84.9076 23.1162 84.8394 23.192 84.7559 23.2525 84.6571 23.2985 84.5583 23.3437 84.4541 23.3667 84.3438 23.3667 84.2519 23.3667 84.1645 23.3513 84.0818 23.3207 83.9991 23.29 83.9263 23.2487 83.8635 23.1951 83.8007 23.1414 83.7463 23.0802 83.7003 23.0097 83.6544 22.94 83.6191 22.8641 83.5946 22.7822 83.5708 22.701 83.5586 22.6182 83.5586 22.5347M84.3468 23.1345C84.4265 23.1345 84.5001 23.1169 84.5667 23.0825 84.6334 23.048 84.6885 23.002 84.7314 22.9453 84.7743 22.8886 84.8072 22.8251 84.831 22.7538 84.8547 22.6833 84.8662 22.6106 84.8662 22.5363 84.8662 22.462 84.854 22.3838 84.8287 22.3126 84.8034 22.2406 84.7689 22.177 84.7253 22.1218 84.6816 22.0667 84.6265 22.0222 84.5606 21.9901 84.4947 21.9571 84.4235 21.941 84.3468 21.941 84.2702 21.941 84.1936 21.9579 84.1262 21.9924 84.0588 22.0268 84.0037 22.072 83.96 22.128 83.9163 22.1846 83.8826 22.2482 83.8589 22.3187 83.8351 22.3892 83.8229 22.462 83.8229 22.5363 83.8229 22.6397 83.8436 22.737 83.8857 22.8274 83.9271 22.9178 83.9891 22.9913 84.0703 23.0487 84.1515 23.1062 84.2442 23.1345 84.3476 23.1345" fill="#212120" transform="matrix(1.01587 0 0 1 652.053 22)"/><path d="M49.9407 4.7242 49.9407 4.88736C49.9407 5.5385 49.5049 5.96212 48.9273 5.96212 48.3129 5.96212 47.831 5.48258 47.831 4.87128 47.831 4.25997 48.3167 3.77507 48.9242 3.77507 49.308 3.77507 49.6611 3.97194 49.8549 4.29445L49.3754 4.58018C49.2835 4.41471 49.1142 4.31896 48.9181 4.31896 48.6109 4.31896 48.3926 4.55567 48.3926 4.87511 48.3926 5.19455 48.6109 5.41593 48.9273 5.41593 49.1486 5.41593 49.2896 5.30562 49.3386 5.17003L48.7763 5.17003 48.7763 4.72496 49.9407 4.72496Z" fill="#212120" transform="matrix(1.01587 0 0 1 652.053 22)"/><path d="M50.7144 4.86898C50.7144 4.26074 51.2001 3.77583 51.8106 3.77583 52.4212 3.77583 52.9015 4.26074 52.9015 4.86898 52.9015 5.47722 52.4158 5.96212 51.8106 5.96212 51.2055 5.96212 50.7144 5.47645 50.7144 4.86898M52.2963 4.86898C52.2963 4.57405 52.0841 4.35266 51.8106 4.35266 51.5372 4.35266 51.3166 4.57405 51.3166 4.86898 51.3166 5.16391 51.5318 5.38529 51.8106 5.38529 52.0895 5.38529 52.2963 5.16391 52.2963 4.86898" fill="#212120" transform="matrix(1.01587 0 0 1 652.053 22)"/><path d="M55.6194 3.82409 54.8021 5.9131 54.2398 5.9131 53.4324 3.82409 54.0375 3.82409 54.5224 5.11105 55.0142 3.82409 55.6194 3.82409Z" fill="#212120" transform="matrix(1.01587 0 0 1 652.053 22)"/><path d="M56.9186 4.33428 56.9186 4.64453 57.533 4.64453 57.533 5.09266 56.9186 5.09266 56.9186 5.40291 57.8494 5.40291 57.8494 5.9131 56.3533 5.9131 56.3533 3.82409 57.8494 3.82409 57.8494 4.33428 56.9186 4.33428Z" fill="#212120" transform="matrix(1.01587 0 0 1 652.053 22)"/><path d="M59.5102 5.19148 59.2735 5.19148 59.2735 5.9131 58.7173 5.9131 58.7173 3.82409 59.7277 3.82409C60.136 3.82409 60.4493 4.11596 60.4493 4.50281 60.4493 4.77016 60.3053 4.99155 60.0839 5.10798L60.5482 5.9131 59.9246 5.9131 59.5102 5.19148ZM59.2742 4.715 59.6672 4.715C59.799 4.715 59.8825 4.62308 59.8825 4.52119 59.8825 4.41931 59.8028 4.32432 59.6672 4.32432L59.2742 4.32432 59.2742 4.71424Z" fill="#212120" transform="matrix(1.01587 0 0 1 652.053 22)"/><path d="M63.1964 3.82409 63.1964 5.9131 62.7199 5.9131 61.8788 4.81306 61.8788 5.9131 61.3226 5.9131 61.3226 3.82409 61.7953 3.82409 62.6402 4.9272 62.6402 3.82409 63.1964 3.82409Z" fill="#212120" transform="matrix(1.01587 0 0 1 652.053 22)"/><path d="M64.0068 4.86898C64.0068 4.26074 64.4917 3.77583 65.1031 3.77583 65.7144 3.77583 66.1931 4.26074 66.1931 4.86898 66.1931 5.47722 65.7082 5.96212 65.1031 5.96212 64.4979 5.96212 64.0068 5.47645 64.0068 4.86898M65.5887 4.86898C65.5887 4.57405 65.3765 4.35266 65.1038 4.35266 64.8311 4.35266 64.6089 4.57405 64.6089 4.86898 64.6089 5.16391 64.8242 5.38529 65.1038 5.38529 65.3834 5.38529 65.5887 5.16391 65.5887 4.86898" fill="#212120" transform="matrix(1.01587 0 0 1 652.053 22)"/><path d="M68.9517 4.32509 68.9517 4.67823 69.566 4.67823 69.566 5.15088 68.9517 5.15088 68.9517 5.9131 68.3871 5.9131 68.3871 3.82409 69.8824 3.82409 69.8824 4.32509 68.9517 4.32509Z" fill="#212120" transform="matrix(1.01587 0 0 1 652.053 22)"/><path d="M71.2919 4.33428 71.2919 4.64453 71.9063 4.64453 71.9063 5.09266 71.2919 5.09266 71.2919 5.40291 72.2227 5.40291 72.2227 5.9131 70.7273 5.9131 70.7273 3.82409 72.2227 3.82409 72.2227 4.33428 71.2919 4.33428Z" fill="#212120" transform="matrix(1.01587 0 0 1 652.053 22)"/><path d="M75.0578 4.86898C75.0578 5.46802 74.579 5.9131 73.9424 5.9131L73.0914 5.9131 73.0914 3.82409 73.9424 3.82409C74.5783 3.82409 75.0578 4.26917 75.0578 4.86821M74.4741 4.86898C74.4741 4.56486 74.2466 4.36799 73.9149 4.36799L73.6598 4.36799 73.6598 5.3692 73.9149 5.3692C74.2466 5.3692 74.4741 5.17233 74.4741 4.86821" fill="#212120" transform="matrix(1.01587 0 0 1 652.053 22)"/><path d="M76.4336 4.33428 76.4336 4.64453 77.048 4.64453 77.048 5.09266 76.4336 5.09266 76.4336 5.40291 77.3644 5.40291 77.3644 5.9131 75.8683 5.9131 75.8683 3.82409 77.3644 3.82409 77.3644 4.33428 76.4336 4.33428Z" fill="#212120" transform="matrix(1.01587 0 0 1 652.053 22)"/><path d="M79.0259 5.19148 78.7892 5.19148 78.7892 5.9131 78.2331 5.9131 78.2331 3.82409 79.2435 3.82409C79.6518 3.82409 79.9651 4.11596 79.9651 4.50281 79.9651 4.77016 79.8211 4.99155 79.5997 5.10798L80.0631 5.9131 79.4396 5.9131 79.0251 5.19148ZM78.7892 4.715 79.1822 4.715C79.3139 4.715 79.3974 4.62308 79.3974 4.52119 79.3974 4.41931 79.3178 4.32432 79.1822 4.32432L78.7892 4.32432 78.7892 4.71424Z" fill="#212120" transform="matrix(1.01587 0 0 1 652.053 22)"/><path d="M82.2387 5.55382 81.4121 5.55382 81.2673 5.9131 80.6806 5.9131 81.5531 3.82409 82.0878 3.82409 82.9695 5.9131 82.3858 5.9131 82.2379 5.55382ZM82.0326 5.05589 81.8235 4.54264 81.6144 5.05589 82.0319 5.05589Z" fill="#212120" transform="matrix(1.01587 0 0 1 652.053 22)"/><path d="M85.1749 5.37533 85.1749 5.9131 83.7034 5.9131 83.7034 3.82409 84.2963 3.82409 84.2963 5.37533 85.1749 5.37533Z" fill="#212120" transform="matrix(1.01587 0 0 1 652.053 22)"/><path d="M49.9407 4.7242 49.9407 4.88736C49.9407 5.5385 49.5049 5.96212 48.9273 5.96212 48.3129 5.96212 47.831 5.48258 47.831 4.87128 47.831 4.25997 48.3167 3.77507 48.9242 3.77507 49.308 3.77507 49.6611 3.97194 49.8549 4.29445L49.3754 4.58018C49.2835 4.41471 49.1142 4.31896 48.9181 4.31896 48.6109 4.31896 48.3926 4.55567 48.3926 4.87511 48.3926 5.19455 48.6109 5.41593 48.9273 5.41593 49.1486 5.41593 49.2896 5.30562 49.3386 5.17003L48.7763 5.17003 48.7763 4.72496 49.9407 4.72496Z" fill="#212120" transform="matrix(1.01587 0 0 1 652.053 22)"/><path d="M50.7144 4.86898C50.7144 4.26074 51.2001 3.77583 51.8106 3.77583 52.4212 3.77583 52.9015 4.26074 52.9015 4.86898 52.9015 5.47722 52.4158 5.96212 51.8106 5.96212 51.2055 5.96212 50.7144 5.47645 50.7144 4.86898M52.2963 4.86898C52.2963 4.57405 52.0841 4.35266 51.8106 4.35266 51.5372 4.35266 51.3166 4.57405 51.3166 4.86898 51.3166 5.16391 51.5318 5.38529 51.8106 5.38529 52.0895 5.38529 52.2963 5.16391 52.2963 4.86898" fill="#212120" transform="matrix(1.01587 0 0 1 652.053 22)"/><path d="M55.6194 3.82409 54.8021 5.9131 54.2398 5.9131 53.4324 3.82409 54.0375 3.82409 54.5224 5.11105 55.0142 3.82409 55.6194 3.82409Z" fill="#212120" transform="matrix(1.01587 0 0 1 652.053 22)"/><path d="M56.9186 4.33428 56.9186 4.64453 57.533 4.64453 57.533 5.09266 56.9186 5.09266 56.9186 5.40291 57.8494 5.40291 57.8494 5.9131 56.3533 5.9131 56.3533 3.82409 57.8494 3.82409 57.8494 4.33428 56.9186 4.33428Z" fill="#212120" transform="matrix(1.01587 0 0 1 652.053 22)"/><path d="M59.5102 5.19148 59.2735 5.19148 59.2735 5.9131 58.7173 5.9131 58.7173 3.82409 59.7277 3.82409C60.136 3.82409 60.4493 4.11596 60.4493 4.50281 60.4493 4.77016 60.3053 4.99155 60.0839 5.10798L60.5482 5.9131 59.9246 5.9131 59.5102 5.19148ZM59.2742 4.715 59.6672 4.715C59.799 4.715 59.8825 4.62308 59.8825 4.52119 59.8825 4.41931 59.8028 4.32432 59.6672 4.32432L59.2742 4.32432 59.2742 4.71424Z" fill="#212120" transform="matrix(1.01587 0 0 1 652.053 22)"/><path d="M63.1964 3.82409 63.1964 5.9131 62.7199 5.9131 61.8788 4.81306 61.8788 5.9131 61.3226 5.9131 61.3226 3.82409 61.7953 3.82409 62.6402 4.9272 62.6402 3.82409 63.1964 3.82409Z" fill="#212120" transform="matrix(1.01587 0 0 1 652.053 22)"/><path d="M64.0068 4.86898C64.0068 4.26074 64.4917 3.77583 65.1031 3.77583 65.7144 3.77583 66.1931 4.26074 66.1931 4.86898 66.1931 5.47722 65.7082 5.96212 65.1031 5.96212 64.4979 5.96212 64.0068 5.47645 64.0068 4.86898M65.5887 4.86898C65.5887 4.57405 65.3765 4.35266 65.1038 4.35266 64.8311 4.35266 64.6089 4.57405 64.6089 4.86898 64.6089 5.16391 64.8242 5.38529 65.1038 5.38529 65.3834 5.38529 65.5887 5.16391 65.5887 4.86898" fill="#212120" transform="matrix(1.01587 0 0 1 652.053 22)"/><path d="M68.9517 4.32509 68.9517 4.67823 69.566 4.67823 69.566 5.15088 68.9517 5.15088 68.9517 5.9131 68.3871 5.9131 68.3871 3.82409 69.8824 3.82409 69.8824 4.32509 68.9517 4.32509Z" fill="#212120" transform="matrix(1.01587 0 0 1 652.053 22)"/><path d="M71.2919 4.33428 71.2919 4.64453 71.9063 4.64453 71.9063 5.09266 71.2919 5.09266 71.2919 5.40291 72.2227 5.40291 72.2227 5.9131 70.7273 5.9131 70.7273 3.82409 72.2227 3.82409 72.2227 4.33428 71.2919 4.33428Z" fill="#212120" transform="matrix(1.01587 0 0 1 652.053 22)"/><path d="M75.0578 4.86898C75.0578 5.46802 74.579 5.9131 73.9424 5.9131L73.0914 5.9131 73.0914 3.82409 73.9424 3.82409C74.5783 3.82409 75.0578 4.26917 75.0578 4.86821M74.4741 4.86898C74.4741 4.56486 74.2466 4.36799 73.9149 4.36799L73.6598 4.36799 73.6598 5.3692 73.9149 5.3692C74.2466 5.3692 74.4741 5.17233 74.4741 4.86821" fill="#212120" transform="matrix(1.01587 0 0 1 652.053 22)"/><path d="M76.4336 4.33428 76.4336 4.64453 77.048 4.64453 77.048 5.09266 76.4336 5.09266 76.4336 5.40291 77.3644 5.40291 77.3644 5.9131 75.8683 5.9131 75.8683 3.82409 77.3644 3.82409 77.3644 4.33428 76.4336 4.33428Z" fill="#212120" transform="matrix(1.01587 0 0 1 652.053 22)"/><path d="M79.0259 5.19148 78.7892 5.19148 78.7892 5.9131 78.2331 5.9131 78.2331 3.82409 79.2435 3.82409C79.6518 3.82409 79.9651 4.11596 79.9651 4.50281 79.9651 4.77016 79.8211 4.99155 79.5997 5.10798L80.0631 5.9131 79.4396 5.9131 79.0251 5.19148ZM78.7892 4.715 79.1822 4.715C79.3139 4.715 79.3974 4.62308 79.3974 4.52119 79.3974 4.41931 79.3178 4.32432 79.1822 4.32432L78.7892 4.32432 78.7892 4.71424Z" fill="#212120" transform="matrix(1.01587 0 0 1 652.053 22)"/><path d="M82.2387 5.55382 81.4121 5.55382 81.2673 5.9131 80.6806 5.9131 81.5531 3.82409 82.0878 3.82409 82.9695 5.9131 82.3858 5.9131 82.2379 5.55382ZM82.0326 5.05589 81.8235 4.54264 81.6144 5.05589 82.0319 5.05589Z" fill="#212120" transform="matrix(1.01587 0 0 1 652.053 22)"/><path d="M85.1749 5.37533 85.1749 5.9131 83.7034 5.9131 83.7034 3.82409 84.2963 3.82409 84.2963 5.37533 85.1749 5.37533Z" fill="#212120" transform="matrix(1.01587 0 0 1 652.053 22)"/><path d="M68.5755 15.9536 70.4454 19.0975 71.9913 19.0975 71.9913 13.1553 68.5763 13.1553 68.5763 15.9536ZM73.3511 12.2628 72.1867 12.2628 72.1867 19.0975 73.3511 19.0975C75.2355 19.0975 76.7684 17.5646 76.7684 15.6802 76.7684 13.7957 75.2355 12.2628 73.3511 12.2628M70.9319 12.9599 71.9906 12.9599 71.9906 8.2457 70.9326 8.2457C69.6327 8.2457 68.5755 9.30284 68.5755 10.6028 68.5755 11.9028 69.6327 12.9592 70.9319 12.9599M52.2565 8.47858 52.2565 14.7226 56.3135 14.7226 52.2565 8.47858ZM81.429 15.3868 85.0531 15.3868 85.0531 8.24494 81.429 8.24494 81.429 15.3868ZM76.1241 8.2457 72.1874 8.2457 72.1874 12.0675 76.1241 12.0675 76.1241 8.2457ZM85.2493 19.0983 88.8734 19.0983 88.8734 15.5836 85.2493 15.5836 85.2493 19.0983ZM81.429 19.0983 85.0531 19.0983 85.0531 15.5836 81.429 15.5836 81.429 19.0983ZM76.9645 19.0983 80.5886 19.0983 80.5886 8.2457 76.9645 8.2457 76.9645 19.0983ZM68.5755 19.0983 70.2172 19.0983 68.5755 16.3374 68.5755 19.0983ZM50.598 10.3638C50.598 9.1956 49.6473 8.2457 48.4799 8.2457L47.6932 8.2457 47.6932 12.4827 48.4799 12.4827C49.6481 12.4827 50.598 11.532 50.598 10.3646M43.8729 12.4827 47.4971 12.4827 47.4971 8.2457 43.8729 8.2457 43.8729 12.4827ZM43.8729 19.0983 47.4971 19.0983 47.4971 12.6788 43.8729 12.6788 43.8729 19.0983ZM48.8507 12.6788 47.6924 12.6788 47.6924 19.0983 48.8507 19.0983C50.6202 19.0983 52.0604 17.6581 52.0604 15.8885 52.0604 14.119 50.6202 12.6788 48.8507 12.6788M58.2508 17.7018 57.4204 19.0983 59.1593 19.0983 58.2508 17.7018ZM58.3626 17.5133 59.393 19.0983 59.6917 19.0983C59.717 18.0212 60.1552 17.0108 60.9273 16.2524 61.7049 15.4887 62.7321 15.0673 63.8192 15.0673 64.9062 15.0673 65.9334 15.4879 66.711 16.2524 67.4831 17.0108 67.9213 18.0212 67.9466 19.0983L68.3802 19.0983 68.3802 16.008 63.8192 8.33993 58.3634 17.5141ZM59.7323 11.4838C59.7323 9.69812 58.2799 8.2457 56.4942 8.2457L52.3392 8.2457 56.5471 14.7218C58.3044 14.6935 59.7323 13.2434 59.7323 11.4838M63.8192 15.2634C62.7842 15.2634 61.806 15.6641 61.0652 16.3911 60.3306 17.1127 59.9123 18.0733 59.8878 19.0983L67.7505 19.0983C67.7252 18.0733 67.3077 17.1127 66.5731 16.3911 65.8323 15.6641 64.8549 15.2634 63.8192 15.2634M56.4406 14.9187 52.2565 14.9187 52.2565 19.0983 57.1921 19.0983 58.1313 17.5187 56.4406 14.9187Z" fill="#212120" transform="matrix(1.01587 0 0 1 652.053 22)"/></g></svg>